<svg width="25" height="20" viewBox="0 0 25 20" fill="none" xmlns="http://www.w3.org/2000/svg">
  <g clip-path="url(#clip0_1_3902)">
    <path fill-rule="evenodd" clip-rule="evenodd" d="M2.24206 6.62758L2.42602 6.9955C2.4523 7.04806 2.48666 7.09657 2.51496 7.14913C2.75654 7.59892 3.02439 8.04164 3.2973 8.47223C3.57323 8.90786 3.86231 9.34451 4.1706 9.75691C4.30907 9.94188 4.41722 10.1117 4.61432 10.2421C4.79525 10.3624 5.0257 10.4422 5.24403 10.4422C5.85554 10.4422 6.07589 10.2087 6.41854 9.74579C6.49637 9.64067 6.56712 9.5305 6.64293 9.42336C6.71772 9.31824 6.78747 9.21008 6.86327 9.10597C7.15741 8.70268 7.4293 8.25087 7.68806 7.82331L8.07619 7.12993C8.33596 6.66599 8.54114 6.19598 8.71095 5.6906C9.03945 4.71218 8.69579 3.49421 8.04284 2.723C7.7295 2.35205 7.37775 2.04781 6.94515 1.8224C6.37204 1.52423 5.84543 1.42012 5.19753 1.42012C4.90239 1.42012 4.61533 1.47369 4.33131 1.54849C3.43173 1.784 2.56247 2.4794 2.15008 3.31429C1.53048 4.56663 1.65278 5.39849 2.24307 6.6296L2.24206 6.62758ZM4.31716 5.02754V4.86582C4.31716 4.39581 4.74774 3.96219 5.33601 3.96219C5.80096 3.96219 6.26288 4.40491 6.26288 4.86582C6.26288 5.18017 6.20324 5.45105 5.96774 5.65927C5.24908 6.29403 4.31716 5.68959 4.31716 5.02754ZM19.0157 18.2423C18.3446 18.2423 17.7138 17.6934 17.7138 17.0213C17.7138 16.6443 17.7361 16.7554 17.7543 16.5331H20.1953C20.3964 16.9525 20.2003 17.5924 19.8991 17.8643C19.6858 18.0573 19.3007 18.2413 19.0147 18.2413L19.0157 18.2423ZM8.15099 16.9808L8.23286 16.5331H10.6739C10.7163 17.0476 10.8123 17.7369 9.97542 18.1139C9.04653 18.5324 8.15099 17.7955 8.15099 16.9808ZM21.294 14.743H18.5679V11.3246H22.8809V13.0338C22.8809 13.5301 22.6686 13.9395 22.424 14.2043C22.1905 14.458 21.7609 14.743 21.294 14.743ZM5.54726 13.0338V11.8542C5.98593 11.8128 6.41348 11.6632 6.7814 11.4075C7.29386 11.0517 7.5981 10.5443 7.96299 10.0177C8.42086 9.35664 8.70893 8.87855 9.10212 8.21448C9.15164 8.13059 9.19309 8.06185 9.23554 7.97796L9.61356 7.24415C9.8794 6.67003 10.2696 5.76641 10.2696 4.95881C10.2696 4.19568 10.03 3.26881 9.68027 2.61788H14.0913C15.6691 2.61788 16.8173 3.76712 16.8173 5.34391V14.743H7.13315C6.31948 14.743 5.54625 13.9556 5.54625 13.0338H5.54726ZM3.79762 11.4065V13.1976C3.79762 13.5907 3.93408 14.1163 4.06851 14.3923C4.55772 15.4 5.31175 16.149 6.4428 16.4128C6.38114 17.1507 6.33565 17.5277 6.69953 18.312C7.1099 19.1954 8.14189 19.9373 9.16984 19.9949C9.77529 20.0293 10.2665 19.9454 10.7284 19.723C11.0296 19.5785 11.1651 19.4956 11.3966 19.2935C11.627 19.0923 11.7443 18.9983 11.9434 18.7012C12.2608 18.2261 12.5044 17.5752 12.5044 16.9424C12.5044 16.7696 12.4639 16.7514 12.4639 16.5351H15.9632C15.9632 17.086 15.854 17.1618 16.1108 17.934C16.6444 19.5421 18.4578 20.469 20.2195 19.7321C20.5288 19.6028 20.8624 19.3784 21.1019 19.1499C21.5113 18.7598 22.0268 17.9219 22.0268 17.1446C22.0268 16.7898 22.0551 16.7089 21.9863 16.4118C23.4479 16.0712 24.6315 14.6409 24.6315 13.1976V8.51771C24.6315 7.74245 24.3465 7.0238 24.0604 6.52549C23.4277 5.42477 22.328 4.62323 21.017 4.40087C20.3196 4.28261 19.3139 4.32607 18.4871 4.32607L18.2607 3.61651C17.6229 2.02254 16.0713 0.867232 14.255 0.867232H8.1055C7.90941 0.735833 7.69109 0.611509 7.44446 0.487185C6.85114 0.19002 6.17595 0.027287 5.49369 0.00100708H5.08736C4.40509 0.0282977 3.72889 0.19002 3.13658 0.487185C2.82527 0.643853 2.30675 0.942029 2.04193 1.19876C1.92973 1.30691 1.82562 1.38778 1.71747 1.49997C1.65682 1.56365 1.64267 1.60004 1.579 1.6627C1.37381 1.86789 1.2222 2.10946 1.06047 2.34901C0.622812 3.00096 0.310486 4.07843 0.310486 4.9578C0.310486 6.4133 1.61437 8.51266 2.3027 9.54465C2.54023 9.90145 2.9597 10.5271 3.21542 10.8556C3.3913 11.081 3.57121 11.2538 3.79864 11.4065H3.79762ZM18.5679 6.11714H20.4803C20.827 6.11714 21.201 6.25158 21.4446 6.37388C22.2916 6.7984 22.8809 7.66361 22.8809 8.64001V9.53555H18.5679V6.11714ZM5.31276 6.92778C5.82825 6.92778 6.34778 6.69126 6.68538 6.35467C7.25343 5.78966 7.42627 4.94466 7.12304 4.19063C7.03409 3.97028 6.89966 3.75195 6.74299 3.59731C6.26995 3.13033 5.89092 2.96659 5.19652 2.96659C4.78312 2.96659 4.41924 3.12932 4.11703 3.34664C3.99674 3.43356 3.94823 3.48612 3.84614 3.58619C3.68442 3.74589 3.551 3.95613 3.46104 4.17445C3.37411 4.38773 3.27405 4.77485 3.29831 5.00126C3.33368 5.32572 3.38018 5.52079 3.49035 5.78359C3.65915 6.1879 4.08165 6.58715 4.48697 6.75595C4.73056 6.85702 4.97618 6.92778 5.31175 6.92778H5.31276Z" fill="#212529" />
  </g>
  <defs>
    <clipPath id="clip0_1_3902">
      <rect width="24.3221" height="20" fill="white" transform="translate(0.308929)" />
    </clipPath>
  </defs>
</svg>