<svg width="25" height="20" viewBox="0 0 25 20" fill="none" xmlns="http://www.w3.org/2000/svg">
  <g clip-path="url(#clip0_1_3887)">
    <path fill-rule="evenodd" clip-rule="evenodd" d="M10.9444 1.45552C10.9444 2.10242 11.1518 2.53369 11.6356 2.89308L12.1194 3.10871C10.2533 3.10871 8.59453 3.39622 7.14312 4.18688C5.2079 5.12129 5.2079 4.25876 4.03294 4.25876C3.4109 4.25876 2.78887 5.48068 3.8256 6.0557C4.10206 6.19946 4.65498 6.41509 5.00056 6.41509C4.03294 8.3558 3.06533 10.3684 2.09772 12.3091C1.89037 12.3091 1.61391 12.2372 1.47568 12.381C1.06099 12.7403 1.82126 13.7467 2.0286 14.0341L2.78887 14.6091C4.51674 15.6873 7.69603 15.7592 9.21657 14.2498C9.63126 13.8903 10.1842 13.2434 10.1842 12.5247C10.1842 12.2372 9.63126 12.3091 9.49303 12.3091C9.42391 12.1653 9.21657 11.734 9.14745 11.5903C8.31808 10.009 7.28134 8.21204 6.65931 6.63072C6.52108 6.34321 6.5902 6.48697 7.14312 6.34321C8.38719 6.0557 9.76949 5.26505 10.9444 5.26505V16.9092C10.1151 16.9092 9.49303 17.628 9.49303 18.4906H7.76516C7.21223 18.4906 6.52108 19.1374 6.52108 20H12.465H18.4089C18.4089 19.1374 17.7178 18.4906 17.1648 18.4906H15.437C15.437 17.628 14.8149 16.9092 13.9855 16.9092V5.26505C15.1604 5.26505 16.5428 6.0557 17.7869 6.34321C18.3398 6.48697 18.4089 6.34321 18.2706 6.63072C17.5795 8.21204 16.6119 10.009 15.7825 11.5903C15.7134 11.734 15.5061 12.1653 15.437 12.3091C15.2986 12.3091 14.6766 12.2372 14.6766 12.5247C14.6766 13.2434 15.2986 13.8903 15.7134 14.2498C17.1648 15.7592 20.4132 15.6873 22.1411 14.6091L22.9013 14.0341C23.1086 13.7467 23.869 12.7403 23.4543 12.381C23.3161 12.2372 23.0395 12.3091 22.8322 12.3091C21.8646 10.3684 20.897 8.3558 19.9294 6.41509C20.275 6.41509 20.8279 6.19946 21.0352 6.0557C22.1411 5.48068 21.45 4.25876 20.8279 4.25876C19.7221 4.25876 19.7221 5.12129 17.7869 4.18688C16.3354 3.39622 14.6766 3.10871 12.8105 3.10871L13.2252 2.89308C13.7782 2.53369 13.9855 2.10242 13.9855 1.45552C13.9855 -0.485174 10.9444 -0.485174 10.9444 1.45552ZM19.1691 6.7026L17.7869 9.50585L16.4045 12.3091H19.1691H21.8646L20.5514 9.50585L19.1691 6.7026ZM5.76082 6.7026L7.14312 9.50585L8.52542 12.3091H5.76082H2.99621L4.37851 9.50585L5.76082 6.7026Z" fill="#1E293B" />
  </g>
  <defs>
    <clipPath id="clip0_1_3887">
      <rect width="23.3333" height="20" fill="white" transform="translate(0.798309)" />
    </clipPath>
  </defs>
</svg>