<svg width="27" height="20" viewBox="0 0 27 20" fill="none" xmlns="http://www.w3.org/2000/svg">
  <g clip-path="url(#clip0_1_3893)">
    <path d="M6.23373 15.5548C7.15408 15.5548 7.90017 14.8087 7.90017 13.8884C7.90017 12.968 7.15408 12.2219 6.23373 12.2219C5.31338 12.2219 4.56729 12.968 4.56729 13.8884C4.56729 14.8087 5.31338 15.5548 6.23373 15.5548Z" fill="#212529" />
    <path d="M21.2331 0H5.67826C2.61152 0.00272963 0.126188 2.48942 0.123459 5.5548V14.4438C0.126188 17.5106 2.61152 19.9959 5.67826 20H21.2331C24.2998 19.9959 26.7851 17.5106 26.7879 14.4452V5.55616C26.7851 2.48942 24.2998 0.00409445 21.2331 0.00136482V0ZM5.67826 2.22192H21.2331C23.0742 2.22192 24.5659 3.71503 24.5659 5.5548H2.34401C2.34401 3.71366 3.83712 2.22192 5.67689 2.22192H5.67826ZM21.2331 17.7767H5.67826C3.83712 17.7767 2.34538 16.2836 2.34538 14.4438V7.77672H24.5673V14.4438C24.5673 16.285 23.0742 17.7767 21.2344 17.7767H21.2331Z" fill="#212529" />
  </g>
  <defs>
    <clipPath id="clip0_1_3893">
      <rect width="26.6665" height="20" fill="white" transform="translate(0.121704)" />
    </clipPath>
  </defs>
</svg>