<svg width="20" height="20" viewBox="0 0 20 20" fill="none" xmlns="http://www.w3.org/2000/svg">
  <g clip-path="url(#clip0_1_3910)">
    <path d="M19.1374 3.39756C18.6638 2.8286 17.9619 2.5 17.2216 2.5C17.2206 2.5 17.2195 2.5 17.2185 2.5H3.74491L3.70941 2.20791C3.56134 0.950303 2.49441 0.0010142 1.22767 0H1.04208C0.581629 0 0.208405 0.373225 0.208405 0.833671C0.208405 1.29412 0.581629 1.66734 1.04208 1.66734H1.22666C1.64958 1.66734 2.00455 1.98377 2.05424 2.40365L3.2013 12.1531C3.44775 14.2515 5.22665 15.8337 7.33923 15.8337H16.0421C16.5025 15.8337 16.8757 15.4604 16.8757 15C16.8757 14.5395 16.5025 14.1663 16.0421 14.1663H7.33923C6.28243 14.1633 5.34126 13.4959 4.98933 12.5H14.9224C16.9386 12.5 18.6658 11.0568 19.0228 9.07301L19.6769 5.44421C19.7033 5.29715 19.7175 5.14807 19.7175 4.99898C19.7175 4.41379 19.5116 3.84685 19.1354 3.39756H19.1374ZM18.0431 5.14807L17.3879 8.77687C17.1739 9.96754 16.1374 10.8337 14.9275 10.8337C14.9264 10.8337 14.9254 10.8337 14.9234 10.8337H4.72463L3.94065 4.16734H17.2175C17.2195 4.16734 17.2206 4.16734 17.2226 4.16734C17.683 4.16734 18.0563 4.54056 18.0563 5.00101C18.0563 5.0507 18.0512 5.1004 18.0431 5.14908V5.14807Z" fill="#212529" />
    <path d="M6.0441 19.999C6.96439 19.999 7.71043 19.2529 7.71043 18.3326C7.71043 17.4124 6.96439 16.6663 6.0441 16.6663C5.12382 16.6663 4.37778 17.4124 4.37778 18.3326C4.37778 19.2529 5.12382 19.999 6.0441 19.999Z" fill="#212529" />
    <path d="M14.3767 19.999C15.297 19.999 16.0431 19.2529 16.0431 18.3326C16.0431 17.4124 15.297 16.6663 14.3767 16.6663C13.4565 16.6663 12.7104 17.4124 12.7104 18.3326C12.7104 19.2529 13.4565 19.999 14.3767 19.999Z" fill="#212529" />
  </g>
  <defs>
    <clipPath id="clip0_1_3910">
      <rect width="19.5091" height="20" fill="white" transform="translate(0.210419)" />
    </clipPath>
  </defs>
</svg>