<svg width="16" height="20" viewBox="0 0 16 20" fill="none" xmlns="http://www.w3.org/2000/svg">
  <g clip-path="url(#clip0_1_3937)">
    <path d="M8.47058 10C11.2317 10 13.4706 7.7611 13.4706 5C13.4706 2.2389 11.2317 0 8.47058 0C5.70948 0 3.47058 2.2389 3.47058 5C3.47306 7.75986 5.71072 9.99752 8.47058 10ZM8.47058 1.66708C10.3113 1.66708 11.8035 3.15927 11.8035 5C11.8035 6.84073 10.3113 8.33292 8.47058 8.33292C6.62985 8.33292 5.13766 6.84073 5.13766 5C5.13766 3.15927 6.62985 1.66708 8.47058 1.66708Z" fill="#212529" />
    <path d="M8.47059 11.6671C4.33142 11.6708 0.973692 15.0273 0.969971 19.1677C0.969971 19.6279 1.34333 20.0012 1.80351 20.0012C2.26369 20.0012 2.63705 19.6279 2.63705 19.1677C2.63705 15.9464 5.24931 13.3342 8.47059 13.3342C11.6919 13.3342 14.3041 15.9464 14.3041 19.1677C14.3041 19.6279 14.6775 20.0012 15.1377 20.0012C15.5979 20.0012 15.9712 19.6279 15.9712 19.1677C15.9675 15.0285 12.611 11.6708 8.47059 11.6671Z" fill="#212529" />
  </g>
  <defs>
    <clipPath id="clip0_1_3937">
      <rect width="15.0001" height="20" fill="white" transform="translate(0.96991)" />
    </clipPath>
  </defs>
</svg>